<svg xmlns="http://www.w3.org/2000/svg" viewBox="0 0 496 496"><defs><style>.a{fill:#fff;}.b{fill:#f05825;}</style></defs><title>reddit_2-01</title><rect class="a" x="88" y="66" width="315" height="327"/><path class="b" d="M201.5,305.5a24.75,24.75,0,1,1,24.6-24.6A24.78,24.78,0,0,1,201.5,305.5ZM504,256c0,137-111,248-248,248S8,393,8,256,119,8,256,8,504,119,504,256ZM371.7,214.8a33.47,33.47,0,0,0-23.8,10c-22.4-15.5-52.6-25.5-86.1-26.6l17.4-78.3,55.4,12.5A24.65,24.65,0,0,0,359.2,157a24.9,24.9,0,1,0-22.1-36l-61.2-13.6c-3-.8-6.1,1.4-6.9,4.4l-19.1,86.4c-33.2,1.4-63.1,11.3-85.5,26.8a33.13,33.13,0,0,0-24.1-10.2c-34.9,0-46.3,46.9-14.4,62.8a72.17,72.17,0,0,0-1.7,15.5c0,52.6,59.2,95.2,132,95.2,73.1,0,132.3-42.6,132.3-95.2a63.88,63.88,0,0,0-1.9-15.8c31.3-16,19.8-62.5-14.9-62.5ZM302.8,331c-18.2,18.2-76.1,17.9-93.6,0a6,6,0,0,0-8.3,0,5.87,5.87,0,0,0,0,8.6c22.8,22.8,87.3,22.8,110.2,0a5.87,5.87,0,0,0,0-8.6A6,6,0,0,0,302.8,331Zm7.7-75a24.75,24.75,0,1,0,24.9,24.9A24.71,24.71,0,0,0,310.5,256Z" transform="translate(-8 -8)"/></svg>